<svg id="Layer_1" data-name="Layer 1" xmlns="http://www.w3.org/2000/svg" xmlns:xlink="http://www.w3.org/1999/xlink" viewBox="0 0 24 24"><defs><linearGradient id="linear-gradient" x1="11.60608" y1="8.38576" x2="17.30712" y2="30.04503" gradientUnits="userSpaceOnUse"><stop offset="0" stop-color="#fcb150"/><stop offset="0.10559" stop-color="#fdba57"/><stop offset="0.27722" stop-color="#fed26b"/><stop offset="0.38614" stop-color="#ffe57b"/></linearGradient></defs><path d="M13.03989,2.49975l2.38,4.82244a1.15964,1.15964,0,0,0,.87314.63437l5.32188.77332a1.15964,1.15964,0,0,1,.64269,1.978l-3.851,3.75375a1.15963,1.15963,0,0,0-.33351,1.02643l.90908,5.30038a1.15964,1.15964,0,0,1-1.68257,1.22247l-4.76-2.5025a1.15964,1.15964,0,0,0-1.07926,0l-4.76,2.5025a1.15964,1.15964,0,0,1-1.68257-1.22247l.90908-5.30038a1.15963,1.15963,0,0,0-.33351-1.02643L1.74238,10.70787a1.15964,1.15964,0,0,1,.64269-1.978L7.707,7.95656a1.15964,1.15964,0,0,0,.87314-.63437l2.38-4.82244A1.15964,1.15964,0,0,1,13.03989,2.49975Z" fill="url(#linear-gradient)"/></svg>