<svg xmlns="http://www.w3.org/2000/svg" xmlns:xlink="http://www.w3.org/1999/xlink" viewBox="0 0 512 512"><defs><linearGradient id="linear-gradient" x1="250.17662" y1="202.57012" x2="334.45597" y2="522.76264" gradientUnits="userSpaceOnUse"><stop offset="0" stop-color="#fcb150"/><stop offset="0.10559" stop-color="#fdba57"/><stop offset="0.27722" stop-color="#fed26b"/><stop offset="0.38614" stop-color="#ffe57b"/></linearGradient></defs><g id="Layer_13" data-name="Layer 13"><rect width="512" height="512" rx="100.73006" fill="#fff"/></g><g id="Layer_10" data-name="Layer 10"><path d="M271.37287,115.55617l35.18422,71.291a17.14313,17.14313,0,0,0,12.90771,9.378l78.67432,11.432a17.14314,17.14314,0,0,1,9.50095,29.24093L350.7108,292.39049a17.14314,17.14314,0,0,0-4.93031,15.17393l13.43918,78.35642a17.14314,17.14314,0,0,1-24.87382,18.07189L263.9774,366.99784a17.14311,17.14311,0,0,0-15.9548,0l-70.36845,36.99489a17.14314,17.14314,0,0,1-24.87382-18.07189l13.43918-78.35642a17.14314,17.14314,0,0,0-4.93031-15.17393l-56.92927-55.49232a17.14314,17.14314,0,0,1,9.50095-29.24093l78.67432-11.432a17.14313,17.14313,0,0,0,12.90771-9.378l35.18422-71.291A17.14314,17.14314,0,0,1,271.37287,115.55617Z" fill="url(#linear-gradient)"/></g></svg>